<svg xmlns="http://www.w3.org/2000/svg" width="27.464" height="40" viewBox="0 0 27.464 40">
  <path id="euro-sign-light" d="M27.109,68.8a1.072,1.072,0,0,0-1.3-.792,16.879,16.879,0,0,1-3.913.474c-7.208,0-12.655-4.162-14.36-10.764H21.4a1.071,1.071,0,0,0,1.052-.869l.138-.714a1.071,1.071,0,0,0-1.052-1.274H6.933a28.294,28.294,0,0,1,.055-5.714H22.939a1.071,1.071,0,0,0,1.052-.869l.138-.714a1.071,1.071,0,0,0-1.052-1.274H7.593a14.562,14.562,0,0,1,14.25-10.764,16.9,16.9,0,0,1,3.353.365A1.07,1.07,0,0,0,26.45,35.1l.351-1.382a1.07,1.07,0,0,0-.827-1.314A21.328,21.328,0,0,0,21.9,32,18.844,18.844,0,0,0,3.521,46.286H1.071A1.071,1.071,0,0,0,0,47.357v.714a1.071,1.071,0,0,0,1.071,1.071H3.026a33.288,33.288,0,0,0-.055,5.714h-1.9A1.071,1.071,0,0,0,0,55.929v.714a1.071,1.071,0,0,0,1.071,1.071h2.34C5.337,66.353,12.49,72,21.9,72a21.247,21.247,0,0,0,4.739-.545,1.07,1.07,0,0,0,.8-1.291Z" transform="translate(0 -32)" fill="#45b8ac"/>
</svg>
