<svg xmlns="http://www.w3.org/2000/svg" width="45" height="40" viewBox="0 0 45 40">
  <g id="Group_89" data-name="Group 89" transform="translate(-170 -872)">
    <path id="hotel-light" d="M31,17.5h3a1.075,1.075,0,0,0,1-1v-3a1.075,1.075,0,0,0-1-1H31a1.075,1.075,0,0,0-1,1v3a1.075,1.075,0,0,0,1,1ZM21,10h3a1.075,1.075,0,0,0,1-1V6a1.075,1.075,0,0,0-1-1H21a1.075,1.075,0,0,0-1,1V9A1.075,1.075,0,0,0,21,10Zm10,0h3a1.075,1.075,0,0,0,1-1V6a1.075,1.075,0,0,0-1-1H31a1.075,1.075,0,0,0-1,1V9A1.075,1.075,0,0,0,31,10ZM11,10h3a1.075,1.075,0,0,0,1-1V6a1.075,1.075,0,0,0-1-1H11a1.075,1.075,0,0,0-1,1V9A1.075,1.075,0,0,0,11,10Zm10,7.5h3a1.075,1.075,0,0,0,1-1v-3a1.075,1.075,0,0,0-1-1H21a1.075,1.075,0,0,0-1,1v3a1.075,1.075,0,0,0,1,1Zm23.375-15A.625.625,0,0,0,45,1.875V.625A.625.625,0,0,0,44.375,0H.625A.625.625,0,0,0,0,.625v1.25A.625.625,0,0,0,.625,2.5H2.5v35H.625A.625.625,0,0,0,0,38.125v1.25A.625.625,0,0,0,.625,40h43.75A.625.625,0,0,0,45,39.375v-1.25a.625.625,0,0,0-.625-.625H42.5V2.5ZM25,37.5H20V31.25A1.25,1.25,0,0,1,21.25,30h2.5A1.25,1.25,0,0,1,25,31.25Zm15,0H27.5V31.25a3.754,3.754,0,0,0-3.75-3.75h-2.5a3.754,3.754,0,0,0-3.75,3.75V37.5H5V2.5H40Zm-29-20h3a1.075,1.075,0,0,0,1-1v-3a1.075,1.075,0,0,0-1-1H11a1.075,1.075,0,0,0-1,1v3a1.075,1.075,0,0,0,1,1Zm2.055,12.317,1.27.177a.637.637,0,0,0,.709-.5,7.706,7.706,0,0,1,14.934,0,.637.637,0,0,0,.709.5l1.27-.177a.623.623,0,0,0,.542-.73,10.27,10.27,0,0,0-19.975,0A.624.624,0,0,0,13.055,29.817Z" transform="translate(170 872)" fill="#45b8ac"/>
  </g>
</svg>
