<svg xmlns="http://www.w3.org/2000/svg" width="40" height="40" viewBox="0 0 40 40">
  <path id="info-square-light" d="M35.714,32H4.286A4.286,4.286,0,0,0,0,36.286V67.714A4.286,4.286,0,0,0,4.286,72H35.714A4.286,4.286,0,0,0,40,67.714V36.286A4.286,4.286,0,0,0,35.714,32Zm1.429,35.714a1.43,1.43,0,0,1-1.429,1.429H4.286a1.43,1.43,0,0,1-1.429-1.429V36.286a1.43,1.43,0,0,1,1.429-1.429H35.714a1.43,1.43,0,0,1,1.429,1.429ZM16.786,60.571h1.071V49.857H16.786a1.071,1.071,0,0,1-1.071-1.071v-.714A1.071,1.071,0,0,1,16.786,47h4.286a1.071,1.071,0,0,1,1.071,1.071v12.5h1.071a1.071,1.071,0,0,1,1.071,1.071v.714a1.071,1.071,0,0,1-1.071,1.071H16.786a1.071,1.071,0,0,1-1.071-1.071v-.714A1.071,1.071,0,0,1,16.786,60.571ZM20,39.143A2.857,2.857,0,1,0,22.857,42,2.857,2.857,0,0,0,20,39.143Z" transform="translate(0 -32)" fill="#45b8ac"/>
</svg>
