<svg xmlns="http://www.w3.org/2000/svg" width="169.703" height="40" viewBox="0 0 169.703 40">
  <g id="Layer" transform="translate(-0.1 -0.4)">
    <g id="Layer-2" data-name="Layer" transform="translate(127.678 30.587)">
      <path id="Layer-3" data-name="Layer" d="M212.55,56.663a5.068,5.068,0,0,1-3.875,1.687,4.875,4.875,0,0,1-.062-9.75,4.594,4.594,0,0,1,3.188,1.188.764.764,0,0,1,.25.562.775.775,0,0,1-.75.813,1.008,1.008,0,0,1-.563-.187,3.064,3.064,0,0,0-2.062-.75,3.024,3.024,0,0,0-3.062,3.313,3.055,3.055,0,0,0,3.125,3.375,3.365,3.365,0,0,0,2.375-.875V54.6H209.3a.752.752,0,1,1,0-1.5h2.687a.854.854,0,0,1,.875.875v2.25A2.646,2.646,0,0,0,212.55,56.663Z" transform="translate(-203.8 -48.6)" fill="#45b8ac"/>
      <path id="Layer-4" data-name="Layer" d="M227.275,49.575a.875.875,0,1,1,1.75,0V54.45a4.063,4.063,0,0,1-8.125,0V49.575a.875.875,0,0,1,1.75,0v5.063a2.313,2.313,0,0,0,4.625,0V49.575Z" transform="translate(-210.212 -48.638)" fill="#45b8ac"/>
      <path id="Layer-5" data-name="Layer" d="M238.375,58.388a.854.854,0,0,1-.875-.875V49.575a.875.875,0,1,1,1.75,0v7.938A.894.894,0,0,1,238.375,58.388Z" transform="translate(-216.438 -48.638)" fill="#45b8ac"/>
      <path id="Layer-6" data-name="Layer" d="M247.4,58.3h-2.625a.854.854,0,0,1-.875-.875v-7.75a.854.854,0,0,1,.875-.875H247.4a4.75,4.75,0,0,1,0,9.5Zm-.062-7.875H245.65v6.25h1.688a3.126,3.126,0,0,0,0-6.25Z" transform="translate(-218.837 -48.675)" fill="#45b8ac" fill-rule="evenodd"/>
      <path id="Layer-7" data-name="Layer" d="M266.087,58.3h-5.312a.854.854,0,0,1-.875-.875v-7.75a.854.854,0,0,1,.875-.875H265.9a.788.788,0,0,1,.812.813.827.827,0,0,1-.812.812h-4.25v2.25h2.312a.813.813,0,1,1,0,1.625H261.65v2.375h4.437a.813.813,0,1,1,0,1.625Z" transform="translate(-224.837 -48.675)" fill="#45b8ac"/>
    </g>
    <g id="Layer-8" data-name="Layer" transform="translate(37.865 6.525)">
      <path id="Layer-9" data-name="Layer" d="M60.1,21.138c0-6.063,4.375-10.938,9.813-10.938a9.749,9.749,0,0,1,8.875,6.313l-4.062,1.313a5.462,5.462,0,0,0-4.812-3.438c-3.125,0-5.563,3.25-5.563,6.75S66.788,27.7,69.913,27.7a5.369,5.369,0,0,0,4.813-3.312L78.85,25.7a9.707,9.707,0,0,1-8.937,6.25C64.475,31.888,60.1,27.2,60.1,21.138Z" transform="translate(-60.1 -10.137)" fill="#282f3e"/>
      <path id="Layer-10" data-name="Layer" d="M93.8,24.725V10.6h4.188V24.725a3.313,3.313,0,0,0,6.625,0V10.6H108.8V24.663a7.5,7.5,0,0,1-7.5,7.563A7.4,7.4,0,0,1,93.8,24.725Z" transform="translate(-72.738 -10.288)" fill="#282f3e"/>
      <path id="Layer-11" data-name="Layer" d="M123.9,10.6h7.5a7.5,7.5,0,0,1,3.813,14l3.75,7h-4.687l-3.187-6h-3v6H123.9Zm7.5,10.875a3.313,3.313,0,0,0,0-6.625h-3.312v6.625Z" transform="translate(-84.025 -10.288)" fill="#282f3e" fill-rule="evenodd"/>
      <path id="Layer-12" data-name="Layer" d="M150.7,31.663,158.387,10.6h2.563l7.687,21.063h-4.625l-.875-2.437h-6.813l-.875,2.438Zm10.938-6.188-2-7.313-2,7.375Z" transform="translate(-94.075 -10.288)" fill="#282f3e" fill-rule="evenodd"/>
      <path id="Layer-13" data-name="Layer" d="M190.65,31.788l-.562,1.125c2.188.25,2.937,1.625,2.937,2.938,0,3.625-3.875,3.188-5.937,3.188v-2.25c1.313,0,3.938.125,3.938-.937,0-1.25-1.75-1.125-3.375-1.125v-1.75l.687-1.25c-4.75-.688-8.437-5.063-8.437-10.688,0-6.063,4.375-10.938,9.813-10.938a9.749,9.749,0,0,1,8.875,6.313l-4.062,1.312a5.462,5.462,0,0,0-4.812-3.437c-3.125,0-5.562,3.25-5.562,6.75s2.438,6.562,5.563,6.562a5.369,5.369,0,0,0,4.813-3.312L198.65,25.6A9.942,9.942,0,0,1,190.65,31.788Z" transform="translate(-105.025 -10.1)" fill="#282f3e"/>
      <path id="Layer-14" data-name="Layer" d="M210.7,31.663,218.388,10.6h2.563l7.687,21.063h-4.625l-.875-2.437h-6.813l-.875,2.438Zm10.938-6.188-2-7.313-2,7.375Z" transform="translate(-116.575 -10.288)" fill="#282f3e" fill-rule="evenodd"/>
      <path id="Layer-15" data-name="Layer" d="M239.8,21.138c0-6.063,4.375-10.938,9.813-10.938s9.812,4.938,9.812,10.938c0,6.063-4.375,10.75-9.812,10.75S239.8,27.2,239.8,21.138Zm15.312,0c0-3.5-2.375-6.688-5.5-6.688s-5.5,3.188-5.5,6.688,2.375,6.5,5.5,6.5C252.675,27.575,255.113,24.637,255.113,21.138Z" transform="translate(-127.488 -10.137)" fill="#282f3e" fill-rule="evenodd"/>
    </g>
    <g id="Layer-16" data-name="Layer" transform="translate(0.1 0.4)">
      <path id="Layer-17" data-name="Layer" d="M17.038,34.275A16.938,16.938,0,1,1,33.975,17.338,16.919,16.919,0,0,1,17.038,34.275Z" transform="translate(-0.1 -0.4)" fill="#45b8ac"/>
      <g id="Layer-18" data-name="Layer" transform="translate(3.515 6.579)">
        <path id="Layer-19" data-name="Layer" d="M10.146,30.219a.557.557,0,0,0,.313-.688L8.646,24.907a1.925,1.925,0,0,1-.187-.812,2.32,2.32,0,0,1,1.312-2.312c1.188-.437,2.188.313,2.688,1.625l1.813,4.625a.557.557,0,0,0,.688.313l.5-.187a.557.557,0,0,0,.313-.688L13.9,22.657a1.925,1.925,0,0,1-.187-.812,2.253,2.253,0,0,1,1.313-2.125c1.25-.5,2.25.25,2.875,1.938l1.687,4.375a.557.557,0,0,0,.688.313l.5-.187a.557.557,0,0,0,.313-.687l-1.75-4.562c-1.187-3-3.125-3.062-4.313-2.625A2.936,2.936,0,0,0,13.4,19.594a4.183,4.183,0,0,0-.562,1.5h-.063a2.593,2.593,0,0,0-3.062-.75,3.07,3.07,0,0,0-2.062,2.625H7.584l-.438-.875a.525.525,0,0,0-.687-.25l-.375.125a.506.506,0,0,0-.312.687c.25.563.5,1.125.75,1.75l2.25,5.75a.557.557,0,0,0,.687.313Z" transform="translate(-5.723 -13.611)" fill="#fff"/>
        <g id="Layer-20" data-name="Layer" transform="translate(5.467)">
          <path id="Layer-21" data-name="Layer" d="M36.411,10.972l-.687.25a.439.439,0,0,0-.25.625l1.875,4.813a2.454,2.454,0,0,1,.188.875,2.426,2.426,0,0,1-1.5,2.25c-1.437.563-2.375-.375-3-2l-1.688-4.312c-.062-.25-.312-.312-.563-.25l-.75.313c-.25.063-.312.313-.25.563L31.6,18.722c1.187,3,3.062,3.125,4.438,2.625a3.281,3.281,0,0,0,2.187-2.625,8.108,8.108,0,0,1,.5,3.188,1.366,1.366,0,0,1,.313-.187,1.069,1.069,0,0,1,1.25.313,7.692,7.692,0,0,0-.25-2.375h0a11.978,11.978,0,0,0-.562-2l-.062-.187c0-.062-.062-.187-.062-.25L37.1,11.41C36.911,10.972,36.661,10.847,36.411,10.972Z" transform="translate(-20.206 -10.926)" fill="#fff"/>
          <path id="Layer-22" data-name="Layer" d="M34.364,29.4a.761.761,0,0,0-1-.438.731.731,0,0,0-.5.688h0a10.317,10.317,0,0,1-6.5,8.437A10.189,10.189,0,0,1,15.8,36.212.8.8,0,1,0,14.739,37.4a11.876,11.876,0,0,0,19.625-7.5h0C34.489,29.774,34.427,29.587,34.364,29.4Z" transform="translate(-14.471 -17.666)" fill="#fff"/>
        </g>
      </g>
    </g>
  </g>
</svg>
