<svg xmlns="http://www.w3.org/2000/svg" width="40" height="40" viewBox="0 0 40 40">
  <path id="mortar-pestle-light" d="M39.375,15H30.518l8.338-8.338A3.9,3.9,0,0,0,33.755.78L14.8,15H.625A.625.625,0,0,0,0,15.625v1.25a.625.625,0,0,0,.625.625H2.5V20a14.993,14.993,0,0,0,9.554,13.965,9.936,9.936,0,0,0-1.947,4.566A1.272,1.272,0,0,0,11.351,40h17.3a1.271,1.271,0,0,0,1.244-1.47,9.916,9.916,0,0,0-1.947-4.566A14.993,14.993,0,0,0,37.5,20V17.5h1.875A.625.625,0,0,0,40,16.875v-1.25A.625.625,0,0,0,39.375,15ZM35.255,2.78a1.4,1.4,0,0,1,1.834,2.113L26.983,15h-8.02ZM35,20a12.423,12.423,0,0,1-7.962,11.636l-3.087,1.2,2.006,2.638A7.7,7.7,0,0,1,27.066,37.5H12.935a7.676,7.676,0,0,1,1.109-2.022l2.006-2.638-3.087-1.2A12.422,12.422,0,0,1,5,20V17.5H35Z" fill="#45b8ac"/>
</svg>
