<svg xmlns="http://www.w3.org/2000/svg" width="66.666" height="40" viewBox="0 0 66.666 40">
  <path id="mountains-light" d="M66.224,99.72l-20.212-31a3.276,3.276,0,0,0-5.352,0l-5.417,8.308L27.869,65.512a3.473,3.473,0,0,0-5.733,0L.479,99.331A3.069,3.069,0,0,0,3.223,104h60.44A2.815,2.815,0,0,0,66.224,99.72Zm-62.71,1.053L24.9,67.351a.259.259,0,0,1,.1-.018l.059-.023,21.36,33.356-42.908.106Zm46.452-.106a2.912,2.912,0,0,0-.44-1.335L37.214,80.106l6.121-9.386,19.526,29.947h-12.9Z" transform="translate(-0.002 -64)" fill="#45b8ac"/>
</svg>
