<svg xmlns="http://www.w3.org/2000/svg" width="44.996" height="40" viewBox="0 0 44.996 40">
  <path id="utensils-alt-light" d="M0,4.655C0,15.818,5.453,21.513,14.734,22.349L6.578,29.583a4.691,4.691,0,0,0-.2,6.82L8.562,38.59a4.684,4.684,0,0,0,6.82-.2l7.273-8.21c7.523,8.867,6.984,8.234,7.054,8.3a4.686,4.686,0,0,0,6.734.109L38.631,36.4a4.692,4.692,0,0,0-.125-6.75l-8.445-7.835.562-.6a8.046,8.046,0,0,0,8.617-2.039,71.264,71.264,0,0,0,5.218-6.8c1.57-2.226-.57-5.218-2.922-5.515A4.218,4.218,0,0,0,38.107,3.42C37.8,1,34.779-1.04,32.592.5a71.586,71.586,0,0,0-6.8,5.226,8.044,8.044,0,0,0-2.039,8.617l-.875.8-15-13.921A4.69,4.69,0,0,0,0,4.655ZM29.662,18.5l-1.437,1.617-3.508-3.258L26.475,15.3A6.216,6.216,0,0,1,27.561,7.49a72.99,72.99,0,0,1,6.468-4.945c.594-.43,1.961.961,1.516,1.539L29.217,10.4c-.547.641.852,2.062,1.516,1.539l6.726-5.968c.578-.422,1.945.937,1.523,1.523l-5.968,6.726c-.516.664.9,2.07,1.547,1.523l6.32-6.32c.578-.453,1.969.922,1.539,1.516a75.2,75.2,0,0,1-4.945,6.476A6.231,6.231,0,0,1,29.662,18.5ZM17.085,23.615l3.937,4.633-7.507,8.484a2.19,2.19,0,0,1-3.187.094L8.14,34.637a2.2,2.2,0,0,1,.094-3.187ZM2.5,4.655a2.189,2.189,0,0,1,3.679-1.6L36.8,31.489a2.183,2.183,0,0,1,.055,3.148L34.67,36.825a2.187,2.187,0,0,1-3.14-.047L17.265,19.966C6.328,19.966,2.5,13.81,2.5,4.655Z" transform="translate(0 0.035)" fill="#45b8ac"/>
</svg>
