<svg xmlns="http://www.w3.org/2000/svg" width="81" height="41" viewBox="0 0 81 41">
  <path id="swimmer-light" d="M16,120A12,12,0,1,0,4,108,12,12,0,0,0,16,120Zm0-20a8,8,0,1,1-8,8A8.009,8.009,0,0,1,16,100Zm7.7,26.823a5.776,5.776,0,0,0,2.82,1.063l5.28-7.536a77.574,77.574,0,0,1,6.345-7.815l19.319,13.375a9.651,9.651,0,0,1,4.43-1.8l-20.97-14.519a77.5,77.5,0,0,1,9.364-7.914,6.067,6.067,0,0,1,4.809-.971l12.547,2.26a2,2,0,0,0,.71-3.937L55.87,96.785a10,10,0,0,0-7.91,1.64,81.359,81.359,0,0,0-19.438,19.629l-5.673,8.1c.286.22.577.415.851.667ZM79,132H76a10.542,10.542,0,0,1-7.011-2.238A5.922,5.922,0,0,0,65.017,128H62.98a5.922,5.922,0,0,0-3.971,1.762A10.529,10.529,0,0,1,52,132a10.542,10.542,0,0,1-7.011-2.238A5.922,5.922,0,0,0,41.018,128H38.98a5.922,5.922,0,0,0-3.971,1.762A10.529,10.529,0,0,1,28,132a10.542,10.542,0,0,1-7.011-2.238A5.922,5.922,0,0,0,17.017,128H14.98a5.922,5.922,0,0,0-3.971,1.762A10.529,10.529,0,0,1,4,132H1a1,1,0,0,0-1,1v2a1,1,0,0,0,1,1H4a18.638,18.638,0,0,0,12-3.98A18.631,18.631,0,0,0,28,136a18.638,18.638,0,0,0,12-3.98A18.631,18.631,0,0,0,52,136a18.638,18.638,0,0,0,12-3.98A18.631,18.631,0,0,0,76,136h3a1,1,0,0,0,1-1v-2A1,1,0,0,0,79,132Z" transform="translate(0.5 -95.5)" fill="#45b8ac" stroke="#fff" stroke-width="1"/>
</svg>
